<?xml version="1.0" standalone="no"?>
<!DOCTYPE svg PUBLIC "-//W3C//DTD SVG 20010904//EN"
 "http://www.w3.org/TR/2001/REC-SVG-20010904/DTD/svg10.dtd">
<svg version="1.0" xmlns="http://www.w3.org/2000/svg"
 width="700.000000pt" height="700.000000pt" viewBox="0 0 700.000000 700.000000"
 preserveAspectRatio="xMidYMid meet">
<metadata>
Created by potrace 1.14, written by Peter Selinger 2001-2017
</metadata>
<g transform="translate(0.000000,700.000000) scale(0.100000,-0.100000)"
fill="#000000" stroke="none">
<path d="M390 6594 c-90 -24 -161 -65 -231 -134 -203 -199 -213 -504 -22 -710
30 -33 70 -69 89 -80 l34 -22 0 -2582 0 -2583 23 -34 c36 -54 55 -59 238 -59
156 0 168 1 200 23 19 13 39 38 46 57 9 27 12 641 12 2605 l1 2571 50 37 c225
168 272 493 103 718 -126 168 -345 246 -543 193z"/>
<path d="M2930 6079 c-245 -26 -565 -104 -835 -204 -55 -20 -219 -91 -365
-157 -505 -228 -645 -316 -678 -426 -9 -29 -12 -430 -12 -1589 0 -1751 -7
-1608 80 -1686 56 -50 103 -67 188 -67 54 0 71 6 144 45 187 102 452 229 593
284 529 208 973 303 1345 288 174 -7 288 -26 475 -79 195 -55 309 -101 597
-244 137 -69 296 -140 352 -160 280 -97 621 -100 989 -8 271 69 536 173 879
345 217 110 246 129 286 198 l27 46 3 1608 2 1608 -21 49 c-24 55 -92 124
-144 146 -49 20 -141 17 -194 -6 -24 -11 -141 -74 -261 -140 -436 -241 -733
-350 -1038 -380 -199 -20 -326 6 -549 111 -529 251 -915 374 -1291 414 -148
16 -435 18 -572 4z m530 -524 c331 -38 552 -110 1075 -348 298 -135 370 -157
591 -177 344 -33 789 77 1246 306 l108 54 0 -1248 0 -1249 -147 -71 c-461
-221 -762 -301 -1086 -289 -189 7 -235 21 -552 174 -596 287 -860 365 -1285
380 -517 18 -1117 -124 -1783 -421 -32 -14 -60 -26 -62 -26 -3 0 -4 546 -3
1213 l3 1212 210 106 c427 214 850 353 1180 388 131 14 372 12 505 -4z"/>
</g>
</svg>
